<svg class="animated" id="freepik_stories-rocket" xmlns="http://www.w3.org/2000/svg" viewBox="0 0 500 500" version="1.1" xmlns:xlink="http://www.w3.org/1999/xlink" xmlns:svgjs="http://svgjs.com/svgjs"><style>svg#freepik_stories-rocket:not(.animated) .animable {opacity: 0;}svg#freepik_stories-rocket.animated #freepik--Character--inject-43 {animation: 6s Infinite  linear floating;animation-delay: 0s;}            @keyframes floating {                0% {                    opacity: 1;                    transform: translateY(0px);                }                50% {                    transform: translateY(-10px);                }                100% {                    opacity: 1;                    transform: translateY(0px);                }            }        .animator-hidden { display: none; }</style><g id="freepik--Shadow--inject-43" class="animable animator-hidden" style="transform-origin: 250px 416.24px;"><ellipse id="freepik--path--inject-43" cx="250" cy="416.24" rx="193.89" ry="11.32" style="fill: rgb(245, 245, 245); transform-origin: 250px 416.24px;" class="animable"></ellipse></g><g id="freepik--Satelite--inject-43" class="animable animator-hidden" style="transform-origin: 382.3px 358.423px;"><polygon points="405.99 353.04 419.86 344.1 415.56 355.84 405.19 355.84 405.99 353.04" style="fill: rgb(38, 50, 56); transform-origin: 412.525px 349.97px;" id="elwi6e0uql3k" class="animable"></polygon><g id="elvgr8all9m1a"><polygon points="405.99 353.04 419.86 344.1 415.56 355.84 405.19 355.84 405.99 353.04" style="fill: rgb(255, 255, 255); opacity: 0.2; transform-origin: 412.525px 349.97px;" class="animable" id="el7essmpsnqws"></polygon></g><g id="elhzqvvvkcwch"><polygon points="406.27 353.17 419.71 344.51 415.56 355.84 405.44 355.84 406.27 353.17" style="fill: rgb(255, 255, 255); opacity: 0.4; transform-origin: 412.575px 350.175px;" class="animable" id="el1z85llen3j8"></polygon></g><polygon points="419.89 361.27 430.58 336.24 423.72 336.24 413.87 361.73 419.89 361.27" style="fill: rgb(38, 50, 56); transform-origin: 422.225px 348.985px;" id="el3t5ou0wc96v" class="animable"></polygon><g id="elmt0j20bkcnk"><polygon points="419.89 361.27 430.58 336.24 423.72 336.24 413.87 361.73 419.89 361.27" style="fill: rgb(255, 255, 255); opacity: 0.2; transform-origin: 422.225px 348.985px;" class="animable" id="elcxv51qlt2b9"></polygon></g><g id="elwyju2w6o3y"><polygon points="419.89 361.27 430.49 336.45 423.83 336.45 414.08 361.71 419.89 361.27" style="fill: rgb(255, 255, 255); opacity: 0.4; transform-origin: 422.285px 349.08px;" class="animable" id="elrt5g4of8ckn"></polygon></g><polygon points="420.31 361.18 430.92 336.08 436.84 335.93 426.63 360.28 420.31 361.18" style="fill: rgb(38, 50, 56); transform-origin: 428.575px 348.555px;" id="el06eem1mzraol" class="animable"></polygon><g id="elds9npsq7s1v"><polygon points="420.31 361.18 430.92 336.08 436.84 335.93 426.63 360.28 420.31 361.18" style="fill: rgb(255, 255, 255); opacity: 0.2; transform-origin: 428.575px 348.555px;" class="animable" id="elhigtcmmsdvq"></polygon></g><g id="elc3s51arhdvl"><polygon points="420.43 361.16 431.08 336.24 436.78 336.08 426.63 360.28 420.43 361.16" style="fill: rgb(255, 255, 255); opacity: 0.4; transform-origin: 428.605px 348.62px;" class="animable" id="elc6ysfqin8kj"></polygon></g><polygon points="437.18 335.78 442.86 335.66 432.68 359.27 427 360.09 437.18 335.78" style="fill: rgb(38, 50, 56); transform-origin: 434.93px 347.875px;" id="eleabogsdgcrh" class="animable"></polygon><g id="elb5zgov201od"><polygon points="437.18 335.78 442.86 335.66 432.68 359.27 427 360.09 437.18 335.78" style="fill: rgb(255, 255, 255); opacity: 0.2; transform-origin: 434.93px 347.875px;" class="animable" id="elg56zm890ez6"></polygon></g><g id="eltvp6dndl2un"><polygon points="437.28 335.93 442.81 335.77 432.68 359.27 427.13 360.07 437.28 335.93" style="fill: rgb(255, 255, 255); opacity: 0.4; transform-origin: 434.97px 347.92px;" class="animable" id="el23lfqedx283"></polygon></g><polygon points="443.22 335.66 448.2 335.51 438.42 358.44 432.98 359.24 443.22 335.66" style="fill: rgb(38, 50, 56); transform-origin: 440.59px 347.375px;" id="el2c6nrj5mkfj" class="animable"></polygon><g id="elnaqwaogxg"><polygon points="443.22 335.66 448.2 335.51 438.42 358.44 432.98 359.24 443.22 335.66" style="fill: rgb(255, 255, 255); opacity: 0.2; transform-origin: 440.59px 347.375px;" class="animable" id="elrabl1axrad"></polygon></g><g id="el92zecp129wu"><polygon points="443.33 335.77 448.17 335.59 438.42 358.44 433.14 359.21 443.33 335.77" style="fill: rgb(255, 255, 255); opacity: 0.4; transform-origin: 440.655px 347.4px;" class="animable" id="elansnie8kjao"></polygon></g><polygon points="400.17 355.92 391.42 379.99 407.79 375.45 415.89 352.12 400.17 355.92" style="fill: #3767A6; transform-origin: 403.655px 366.055px;" id="elfhcmejhom9c" class="animable"></polygon><g id="el1r36ug2x7gk"><polygon points="400.17 355.92 391.42 379.99 407.79 375.45 415.89 352.12 400.17 355.92" style="opacity: 0.2; transform-origin: 403.655px 366.055px;" class="animable" id="elc3wor55k2nf"></polygon></g><polygon points="377.32 342.56 400.17 355.92 391.42 379.99 369.15 365.19 377.32 342.56" style="fill: #3767A6; transform-origin: 384.66px 361.275px;" id="el68p1wld35c" class="animable"></polygon><g id="elprb4siyj24"><polygon points="377.32 342.56 400.17 355.92 391.42 379.99 369.15 365.19 377.32 342.56" style="opacity: 0.05; transform-origin: 384.66px 361.275px;" class="animable" id="elg8mwnz3rd7"></polygon></g><polygon points="377.32 342.56 394.18 341.26 415.89 352.12 400.17 355.92 377.32 342.56" style="fill: #3767A6; transform-origin: 396.605px 348.59px;" id="el16cc8qb82kd" class="animable"></polygon><g id="el1jjfr0chfz6"><polygon points="377.32 342.56 394.18 341.26 415.89 352.12 400.17 355.92 377.32 342.56" style="fill: rgb(255, 255, 255); opacity: 0.4; transform-origin: 396.605px 348.59px;" class="animable" id="eljp3onb1xbzh"></polygon></g><polygon points="406.42 333.64 407.06 333.97 401.63 348.56 400.82 348.31 406.42 333.64" style="fill: rgb(38, 50, 56); transform-origin: 403.94px 341.1px;" id="eluc90512fxw" class="animable"></polygon><g id="elpob6z4gkccq"><polygon points="406.42 333.64 406.67 333.77 401.09 348.39 400.82 348.31 406.42 333.64" style="fill: rgb(255, 255, 255); opacity: 0.4; transform-origin: 403.745px 341.015px;" class="animable" id="eltif97m3h5o"></polygon></g><g id="ell7hytkvxwf"><polygon points="407.06 333.97 406.67 333.77 401.09 348.39 401.63 348.56 407.06 333.97" style="fill: rgb(255, 255, 255); opacity: 0.2; transform-origin: 404.075px 341.165px;" class="animable" id="eltnaqetqj8zk"></polygon></g><polygon points="327.66 339.96 316.4 376.58 329.36 374.56 340.79 339.48 327.66 339.96" style="fill: rgb(38, 50, 56); transform-origin: 328.595px 358.03px;" id="els3f5lqddkl" class="animable"></polygon><g id="el6y9zpo7ywdd"><polygon points="327.66 339.96 316.4 376.58 329.36 374.56 340.79 339.48 327.66 339.96" style="fill: rgb(255, 255, 255); opacity: 0.2; transform-origin: 328.595px 358.03px;" class="animable" id="elav3ec23xrz"></polygon></g><g id="el91z1tssfxq"><polygon points="327.86 340.17 316.68 376.54 329.36 374.56 340.69 339.77 327.86 340.17" style="fill: rgb(255, 255, 255); opacity: 0.4; transform-origin: 328.685px 358.155px;" class="animable" id="elsg60irfqkj"></polygon></g><polygon points="341.35 339.48 330.09 374.56 342.32 372.77 353.5 338.99 341.35 339.48" style="fill: rgb(38, 50, 56); transform-origin: 341.795px 356.775px;" id="el3qqc0w99qgw" class="animable"></polygon><g id="elb9rbbfiwhir"><polygon points="341.35 339.48 330.09 374.56 342.32 372.77 353.5 338.99 341.35 339.48" style="fill: rgb(255, 255, 255); opacity: 0.2; transform-origin: 341.795px 356.775px;" class="animable" id="elrg7mcm4g1"></polygon></g><g id="ell75owgodfp9"><polygon points="341.56 339.77 330.38 374.51 342.32 372.77 353.44 339.2 341.56 339.77" style="fill: rgb(255, 255, 255); opacity: 0.4; transform-origin: 341.91px 356.855px;" class="animable" id="eljbow0fet4i"></polygon></g><polygon points="353.99 339 342.85 372.49 353.99 371.07 365.13 338.71 353.99 339" style="fill: rgb(38, 50, 56); transform-origin: 353.99px 355.6px;" id="ellftx2xplwc9" class="animable"></polygon><g id="eltahdc9reilc"><polygon points="353.99 339 342.85 372.49 353.99 371.07 365.13 338.71 353.99 339" style="fill: rgb(255, 255, 255); opacity: 0.2; transform-origin: 353.99px 355.6px;" class="animable" id="elxqsnmq4529j"></polygon></g><g id="el1vup1b2nsha"><polygon points="354.14 339.2 343.15 372.45 353.99 371.07 365.03 338.99 354.14 339.2" style="fill: rgb(255, 255, 255); opacity: 0.4; transform-origin: 354.09px 355.72px;" class="animable" id="elt5csszy1b6g"></polygon></g><polygon points="365.58 338.42 354.32 370.91 364.89 369.41 375.82 338.06 365.58 338.42" style="fill: rgb(38, 50, 56); transform-origin: 365.07px 354.485px;" id="elt7fx4y7ra" class="animable"></polygon><g id="ele1uxcrgqlqg"><polygon points="365.58 338.42 354.32 370.91 364.89 369.41 375.82 338.06 365.58 338.42" style="fill: rgb(255, 255, 255); opacity: 0.2; transform-origin: 365.07px 354.485px;" class="animable" id="eluwhac8omid"></polygon></g><g id="el1fwm7a5n4um"><polygon points="365.7 338.63 354.57 370.88 364.89 369.41 375.75 338.26 365.7 338.63" style="fill: rgb(255, 255, 255); opacity: 0.4; transform-origin: 365.16px 354.57px;" class="animable" id="elwkq9lomfs7i"></polygon></g><polygon points="385.49 355.6 384.16 359.45 367.68 362.73 373.44 346.69 385.49 355.6" style="fill: rgb(38, 50, 56); transform-origin: 376.585px 354.71px;" id="elg7m6b4jhv4n" class="animable"></polygon><g id="el3wcj87i1lcv"><polygon points="385.49 355.6 384.16 359.45 367.68 362.73 373.44 346.69 385.49 355.6" style="fill: rgb(255, 255, 255); opacity: 0.2; transform-origin: 376.585px 354.71px;" class="animable" id="el9riqblgdv4o"></polygon></g><g id="elvg5lnarsf2"><polygon points="385.37 355.92 384.16 359.45 367.98 362.67 373.56 347.01 385.37 355.92" style="fill: rgb(255, 255, 255); opacity: 0.4; transform-origin: 376.675px 354.84px;" class="animable" id="el1o57nb5wj3"></polygon></g><path d="M416.25,353.81l-15.71,29.27c-4.2-2-4.23-13.91-1.1-20.75C403.31,355.69,411.9,352.43,416.25,353.81Z" style="fill: rgb(38, 50, 56); transform-origin: 406.737px 368.289px;" id="elvrke7ogp9l" class="animable"></path><g id="elnzebrpdkze"><g style="opacity: 0.2; transform-origin: 399.943px 372.16px;" class="animable" id="el8nukq8p3cgk"><path d="M401.8,380.72l-.68,1.27c-3.89-3.67-3.56-14.19-1.68-19.66C396.48,374.06,401.8,380.72,401.8,380.72Z" id="el5ai7ydf4aei" class="animable" style="transform-origin: 399.943px 372.16px;"></path></g></g><g id="elozj1ikj0n3"><g style="opacity: 0.3; transform-origin: 406.737px 368.289px;" class="animable" id="el1zqx4b83ys7"><path d="M416.25,353.81l-15.71,29.27c-4.2-2-4.23-13.91-1.1-20.75C403.31,355.69,411.9,352.43,416.25,353.81Z" style="fill: rgb(255, 255, 255); transform-origin: 406.737px 368.289px;" id="el31yomywliot" class="animable"></path></g></g><g id="el8fqx4dp6aw7"><path d="M400.42,361.42c6.21-5.42,10.63-6.27,14.52-5.17l.63-1.18C410.76,354.47,406.27,355.63,400.42,361.42Z" style="fill: rgb(255, 255, 255); opacity: 0.2; transform-origin: 407.995px 358.174px;" class="animable" id="el719oeteimpg"></path></g><path d="M402.33,364.87c-4.6,8-5.62,16-2.28,17.92s9.77-3,14.37-10.94,5.62-16,2.28-17.91S406.93,356.91,402.33,364.87Z" style="fill: #3767A6; transform-origin: 408.375px 368.366px;" id="ela6t6ggk9dr" class="animable"></path><g id="el97tkvedpvm7"><path d="M402.33,364.87c-4.6,8-5.62,16-2.28,17.92s9.77-3,14.37-10.94,5.62-16,2.28-17.91S406.93,356.91,402.33,364.87Z" style="fill: rgb(255, 255, 255); opacity: 0.4; transform-origin: 408.375px 368.366px;" class="animable" id="elx0o0vk7c2ll"></path></g><g id="elgseeyus6mmp"><path d="M402.35,364.57a29.63,29.63,0,0,0-2.21,4.94,3.14,3.14,0,0,0,1.12,3.67c1.6.92,4.69-1.43,6.9-5.25s2.7-7.68,1.1-8.61c-.94-.54-2.75-.19-4.06,1.31A26.32,26.32,0,0,0,402.35,364.57Z" style="opacity: 0.2; transform-origin: 405.069px 366.23px;" class="animable" id="els5bktb5zcqf"></path></g><path d="M410.76,367.28l-4.18-1.69L404.21,363a2.48,2.48,0,0,0-1.71,2.77l3.22,1.06,3.2,3.61Z" style="fill: rgb(38, 50, 56); transform-origin: 406.614px 366.72px;" id="eljybgbyhyfc7" class="animable"></path><g id="elw0ct1trufh"><path d="M410.76,367.28l-4.18-1.69L404.21,363a2.48,2.48,0,0,0-1.71,2.77l3.22,1.06,3.2,3.61Z" style="fill: rgb(255, 255, 255); opacity: 0.2; transform-origin: 406.614px 366.72px;" class="animable" id="el2krj195btqe"></path></g><path d="M409.17,368.49c-.51.89-.62,1.77-.25,2s1.08-.33,1.59-1.21.62-1.77.25-2S409.68,367.61,409.17,368.49Z" style="fill: rgb(38, 50, 56); transform-origin: 409.84px 368.885px;" id="elni3tqgfivm" class="animable"></path><g id="el0wf8n9phgic"><path d="M409.17,368.49c-.51.89-.62,1.77-.25,2s1.08-.33,1.59-1.21.62-1.77.25-2S409.68,367.61,409.17,368.49Z" style="fill: rgb(255, 255, 255); opacity: 0.4; transform-origin: 409.84px 368.885px;" class="animable" id="ela9w2e7vht6v"></path></g><g id="elr6wcyjcyrb"><path d="M402.87,364.06a3.07,3.07,0,0,0-.37,1.75l3.22,1.06,3.2,3.61c-.4-.3-.12-1.5.34-2.13C409.26,368.35,408,367.56,402.87,364.06Z" style="opacity: 0.2; transform-origin: 405.874px 367.27px;" class="animable" id="elbb9oiws33g7"></path></g><g id="elw5zloy977qn"><polygon points="410.48 367.25 406.47 365.74 403.98 363.13 403.82 363.19 406.4 365.77 410.25 367.33 410.48 367.25" style="fill: rgb(255, 255, 255); opacity: 0.2; transform-origin: 407.15px 365.23px;" class="animable" id="el8i7d3ebfnpa"></polygon></g><g id="elkwrmh9zl2ap"><g style="opacity: 0.2; transform-origin: 409.94px 368.947px;" class="animable" id="elv7g67rrqzz7"><path d="M409.37,368.61c-.43.75-.53,1.51-.22,1.69s.93-.28,1.36-1,.53-1.51.22-1.7S409.8,367.85,409.37,368.61Z" id="elqdryh2whff" class="animable" style="transform-origin: 409.94px 368.947px;"></path><g id="elqn6fru66r4f"><path d="M409.37,368.61c-.43.75-.53,1.51-.22,1.69s.93-.28,1.36-1,.53-1.51.22-1.7S409.8,367.85,409.37,368.61Z" style="opacity: 0.4; transform-origin: 409.94px 368.947px;" class="animable" id="ellfj0uyxysyq"></path></g></g></g><polygon points="402.75 380.94 402.95 381.26 414.41 375.67 414.26 375.37 402.75 380.94" style="fill: rgb(38, 50, 56); transform-origin: 408.58px 378.315px;" id="el8jigcfr9dyl" class="animable"></polygon><g id="elm7rf98gfah"><polygon points="402.75 380.94 402.95 381.26 414.41 375.67 414.26 375.37 402.75 380.94" style="fill: rgb(255, 255, 255); opacity: 0.1; transform-origin: 408.58px 378.315px;" class="animable" id="elwoaxz0p49p"></polygon></g><polygon points="417.71 359.69 418.01 359.69 418.33 369.73 417.93 369.73 417.71 359.69" style="fill: rgb(38, 50, 56); transform-origin: 418.02px 364.71px;" id="ellpr9yow10yr" class="animable"></polygon><g id="elrhn5qrp31g"><polygon points="417.71 359.69 418.01 359.69 418.33 369.73 417.93 369.73 417.71 359.69" style="fill: rgb(255, 255, 255); opacity: 0.1; transform-origin: 418.02px 364.71px;" class="animable" id="ellpwnbgu0h2d"></polygon></g><polygon points="404.26 362.14 418.33 369.73 418.16 369.96 404 362.4 404.26 362.14" style="fill: rgb(38, 50, 56); transform-origin: 411.165px 366.05px;" id="elv8wbef0956" class="animable"></polygon><g id="eloe02xs85gbm"><polygon points="404.26 362.14 418.33 369.73 418.16 369.96 404 362.4 404.26 362.14" style="fill: rgb(255, 255, 255); opacity: 0.1; transform-origin: 411.165px 366.05px;" class="animable" id="ellrc97nm6z6l"></polygon></g><polygon points="403.65 363.11 403.89 362.81 414.51 375.23 414.35 375.47 403.65 363.11" style="fill: rgb(38, 50, 56); transform-origin: 409.08px 369.14px;" id="eluaq82rtiflf" class="animable"></polygon><g id="elvlia1qhs87"><polygon points="403.65 363.11 403.89 362.81 414.51 375.23 414.35 375.47 403.65 363.11" style="fill: rgb(255, 255, 255); opacity: 0.1; transform-origin: 409.08px 369.14px;" class="animable" id="elt1obgdbpr0d"></polygon></g><path d="M415.1,372.19c-1,1.79-1.26,3.59-.51,4s2.2-.66,3.23-2.45,1.26-3.59.51-4S416.14,370.4,415.1,372.19Z" style="fill: rgb(38, 50, 56); transform-origin: 416.464px 372.965px;" id="el8d7nwg6v83x" class="animable"></path><g id="eli5vi244ktq"><path d="M415.1,372.19c-1,1.79-1.26,3.59-.51,4s2.2-.66,3.23-2.45,1.26-3.59.51-4S416.14,370.4,415.1,372.19Z" style="fill: rgb(255, 255, 255); opacity: 0.2; transform-origin: 416.464px 372.965px;" class="animable" id="elr2990jaqclk"></path></g><g id="el2v5qiz2rkes"><path d="M415.38,372.35c-.93,1.61-1.13,3.22-.46,3.61s2-.6,2.9-2.2,1.13-3.23.46-3.62S416.31,370.74,415.38,372.35Z" style="opacity: 0.1; transform-origin: 416.596px 373.05px;" class="animable" id="eltngiwnoqsif"></path></g><g id="elo1osg7l4waa"><polygon points="384.16 359.45 369.15 365.19 370.25 362.14 384.16 359.45" style="opacity: 0.2; transform-origin: 376.655px 362.32px;" class="animable" id="elwq74ef6wybk"></polygon></g></g><g id="freepik--planet-2--inject-43" class="animable animator-hidden" style="transform-origin: 397.235px 130.63px;"><circle cx="397.23" cy="130.63" r="26.63" style="fill: #3767A6; transform-origin: 397.23px 130.63px;" id="elnnllfc0nkr" class="animable"></circle><g id="elqw3y9djot3a"><circle cx="397.23" cy="130.63" r="26.63" style="fill: rgb(255, 255, 255); opacity: 0.4; transform-origin: 397.23px 130.63px;" class="animable" id="eloxf4oyog7gc"></circle></g><g id="elz8opuzov5zi"><circle cx="397.23" cy="130.63" r="26.63" style="fill: rgb(255, 255, 255); opacity: 0.4; transform-origin: 397.23px 130.63px;" class="animable" id="elunpvfucavmc"></circle></g><g id="el16zzpqfinsq"><path d="M373.77,118c-.6,3,1.48,4.26,6.05,4a78.16,78.16,0,0,0,31.09-8.38c2.12-1.45,2.33-3.1,1.53-4.86,12.93,10.27,13.83,24,8.2,34.55a10.65,10.65,0,0,1-5.81,4.33,82.37,82.37,0,0,1-21.52,5.27c-6.83,1-10.84.55-12.38-1.23C369.28,142.65,368.3,128.8,373.77,118Z" style="fill: rgb(255, 255, 255); opacity: 0.2; transform-origin: 397.244px 131.096px;" class="animable" id="el6j434jijk4g"></path></g><g id="elj3gpkse4yh"><path d="M370.6,130.63A25.23,25.23,0,0,0,375,145c1.4,2,5.93,2.4,13,1.41a100.62,100.62,0,0,0,26.79-6.56c4.68-1.84,7.78-4.19,9.11-7.14a27,27,0,0,0-2.72-13.7c-.41,3.68-2.93,6.73-8,9a136.59,136.59,0,0,1-30.73,7.59C375.76,136.37,371.15,135.27,370.6,130.63Z" style="fill: rgb(255, 255, 255); opacity: 0.2; transform-origin: 397.279px 132.97px;" class="animable" id="eli6nblx3bri"></path></g><g id="elzbp5khofahl"><path d="M386.52,107.19a40.11,40.11,0,0,1,7.86-2.15c3.53-.36,4.14.24,3.75,1.17a12,12,0,0,1-3.66,2.56,22.22,22.22,0,0,1-6.7,1.73c-1.61.07-3.32.11-4.29-.63C383,109,384.44,108.08,386.52,107.19Z" style="opacity: 0.1; transform-origin: 390.81px 107.735px;" class="animable" id="elverqrmmi2b"></path></g><path d="M440.24,117.55c-1.33-4.1-10.08-5.25-22.29-3.64a23.65,23.65,0,0,1,2.82,4.26h0c4.37.17,7.26,1.21,7.89,3.14,1.54,4.77-11.27,13.19-28.62,18.8s-32.66,6.31-34.2,1.54c-.67-2,.94-4.47,4.78-7.35-.05,0,.27-.21.22-.18a27.24,27.24,0,0,1-.18-5c-11.14,5.94-17.78,12.13-16.43,16.29,2.12,6.53,23.09,5.59,46.85-2.11S442.36,124.08,440.24,117.55Z" style="fill: #3767A6; transform-origin: 397.235px 131.481px;" id="ell34l7xgt979" class="animable"></path><g id="eldchcddf70wf"><path d="M440.24,117.55c-1.33-4.1-10.08-5.25-22.29-3.64a23.65,23.65,0,0,1,2.82,4.26h0c4.37.17,7.26,1.21,7.89,3.14,1.54,4.77-11.27,13.19-28.62,18.8s-32.66,6.31-34.2,1.54c-.67-2,.94-4.47,4.78-7.35-.05,0,.27-.21.22-.18a27.24,27.24,0,0,1-.18-5c-11.14,5.94-17.78,12.13-16.43,16.29,2.12,6.53,23.09,5.59,46.85-2.11S442.36,124.08,440.24,117.55Z" style="fill: rgb(255, 255, 255); opacity: 0.3; transform-origin: 397.235px 131.481px;" class="animable" id="elq23zue0hh5t"></path></g></g><g id="freepik--planet-1--inject-43" class="animable animator-hidden" style="transform-origin: 113.7px 178.56px;"><g id="eldbqek1z61qs"><circle cx="113.7" cy="178.56" r="39.01" style="fill: #3767A6; transform-origin: 113.7px 178.56px; transform: rotate(-45deg);" class="animable" id="elgkqpw27xvtc"></circle></g><g id="elsoxwu8tm3im"><circle cx="113.7" cy="178.56" r="39.01" style="fill: rgb(255, 255, 255); opacity: 0.4; transform-origin: 113.7px 178.56px; transform: rotate(-45deg);" class="animable" id="el2qapuxsbo7d"></circle></g><g id="eldjquca4sq5l"><path d="M141.7,181.57l-.89.13a.81.81,0,0,1-.65-.18l-1.44-1.21a1.37,1.37,0,0,0-.2-.13l-4.2-1.81a.82.82,0,0,1-.35-.29l-2.37-3.35a1,1,0,0,0-.42-.35l-1.39-.64a.66.66,0,0,0-.2-.06l-1.47-.22a1.34,1.34,0,0,1-.56-.24l-3.12-2.36a.91.91,0,0,0-.43-.17l-2.29-.3a.83.83,0,0,0-.44.06l-.62.27a.84.84,0,0,1-.66,0l-2.73-1.26a.78.78,0,0,0-.52-.06l-2.42.54a.76.76,0,0,0-.39.24l-1,1.1a.72.72,0,0,1-.69.22l-2-.42-4.21-1.88-1.37-2.14a.79.79,0,0,1-.1-.56l.3-1.66,1-2.38a.14.14,0,0,0-.15-.2l-1.77.21a.73.73,0,0,0-.54.36l-.52.9a.86.86,0,0,1-.55.4l-2.42.54a.45.45,0,0,1-.54-.3l-.3-.91-.74-1.36a.71.71,0,0,1,0-.74l1.2-1.75.47-1.21a.77.77,0,0,1,.31-.38l1.59-1a.85.85,0,0,1,.54-.12l1.51.21a.69.69,0,0,0,.54-.15l.61-.48a.73.73,0,0,1,.38-.14l1.69-.12a.82.82,0,0,1,.4.08l.91.42a.52.52,0,0,1,.29.47V158a.48.48,0,0,0,.48.48h.27a.63.63,0,0,0,.62-.68l-.08-.7-.16-1.42a.66.66,0,0,1,.36-.67l1.62-.81,2.12-2.33,1.44-2.17,2.66-.83a.55.55,0,0,0,.39-.52v-1.3a.51.51,0,0,1,.39-.5l1.76-.43a.68.68,0,0,0,.39-.26l.73-1.08a.29.29,0,0,0-.14-.44l-3.21-1.18-2.35-1.14a.64.64,0,0,0-.64.05l-3,2.09a.74.74,0,0,1-.72.06l-2.17-1-1.63-.75a.18.18,0,0,1,0-.33l1.65-.55a.56.56,0,0,0,.2-.11L112,139.6A38.74,38.74,0,0,0,96,144a72.16,72.16,0,0,0-4.2,15.72.8.8,0,0,0,.25.68l6.14,5.88a.67.67,0,0,0,.4.18l2.28.25a.68.68,0,0,1,.32.11l8.8,5.29a.62.62,0,0,1,.31.61l-.85,8.89a1.45,1.45,0,0,0,.22.95l4.3,6.83a.93.93,0,0,0,.21.23l3.3,2.54a.56.56,0,0,1,.21.53l-1.18,7.22-2.25,11.15c.22,1.5,2.17.58,5-1.52l2.81-4.62,2.47-1,6.32-4.51,4.35-4.93,2.34-5.18a1.14,1.14,0,0,1,.15-.23l2.38-2.73,1.59-1.65a.83.83,0,0,0,.23-.56v-2.38A.17.17,0,0,0,141.7,181.57Z" style="opacity: 0.2; transform-origin: 116.847px 175.7px;" class="animable" id="elgmcpfxllu0h"></path></g><path d="M90.18,161.93v0h0Z" style="fill: rgb(255, 255, 255); transform-origin: 90.18px 161.93px;" id="el1936foghf0v" class="animable"></path><path d="M147.73,177.55v0h0v0Z" style="fill: rgb(255, 255, 255); transform-origin: 147.73px 177.55px;" id="el28uiuwelnn7" class="animable"></path><path d="M150.31,174.26v0h0Z" style="fill: rgb(255, 255, 255); transform-origin: 150.31px 174.26px;" id="elyf8pfbfvih" class="animable"></path><polygon points="150.31 174.21 150.31 174.2 150.31 174.2 150.31 174.21" style="fill: rgb(255, 255, 255); transform-origin: 150.31px 174.205px;" id="elzf7pzsiczw" class="animable"></polygon><path d="M131.08,147.84l-.05,0,0,0a.13.13,0,0,0,0-.06Z" style="fill: rgb(255, 255, 255); transform-origin: 131.055px 147.81px;" id="elk3yyvlzk8fk" class="animable"></path></g><g id="freepik--Character--inject-43" class="animable" style="transform-origin: 260.06px 248.353px;"><path d="M281.61,248.5c3.26,1.72,28.6,30.3,21.84,43.89-5,10-36.25,14.65-36.25,14.65l-3.85-8.53s22.88-8.1,24.23-11.65-24.36-22.45-24.36-22.45Z" style="fill: #3767A6; transform-origin: 283.906px 277.77px;" id="elam1c3122s1w" class="animable"></path><g id="elr19a1i7rgwg"><path d="M281.61,248.5c3.26,1.72,28.6,30.3,21.84,43.89-5,10-36.25,14.65-36.25,14.65l-3.85-8.53s22.88-8.1,24.23-11.65-24.36-22.45-24.36-22.45Z" style="fill: rgb(255, 255, 255); opacity: 0.3; transform-origin: 283.906px 277.77px;" class="animable" id="el2q94pnd7vuz"></path></g><g id="elej0nhtbj4c"><path d="M278.13,292.63c-.82,3.32-3.2,5.88-8.06,7.26l3,6.07-.62.13-4.74-9.2Z" style="opacity: 0.2; transform-origin: 272.92px 299.36px;" class="animable" id="elt1wgyilisn"></path></g><path d="M266.78,295l6.63,12.88-12.77,2.89a1.33,1.33,0,0,0-1,1.7l1.52,4.69a2,2,0,0,1-.85,2.27l-1,.6a1.37,1.37,0,0,1-1.84-.42l-11-16.61a.82.82,0,0,1,.42-1.23Z" style="fill: #3767A6; transform-origin: 259.872px 307.611px;" id="elhxjiz6fb3cp" class="animable"></path><g id="elg521tw34804"><g style="opacity: 0.2; transform-origin: 259.872px 307.611px;" class="animable" id="el2bkmx6rn12b"><path d="M266.78,295l6.63,12.88-12.77,2.89a1.33,1.33,0,0,0-1,1.7l1.52,4.69a2,2,0,0,1-.85,2.27l-1,.6a1.37,1.37,0,0,1-1.84-.42l-11-16.61a.82.82,0,0,1,.42-1.23Z" style="fill: rgb(255, 255, 255); transform-origin: 259.872px 307.611px;" id="elbgdfg6f2aj9" class="animable"></path></g></g><g id="elfmp7dhh0gzu"><path d="M255,299A40.39,40.39,0,0,0,269.38,300l-2.6-5.05Z" style="opacity: 0.2; transform-origin: 262.19px 297.597px;" class="animable" id="elpst3qxgqcc"></path></g><g id="elwdd8f4a05m8"><path d="M280.34,278.08l2.1,1.92c2.14-7.73-1.72-15.13-3-25l-1.85.52A101.08,101.08,0,0,1,280.34,278.08Z" style="opacity: 0.2; transform-origin: 280.332px 267.5px;" class="animable" id="elqnsve20rg4s"></path></g><polygon points="224.16 331.24 206 338.21 202.6 311.5 220.54 304.31 224.16 331.24" style="fill: #3767A6; transform-origin: 213.38px 321.26px;" id="eltanr3gb7nvr" class="animable"></polygon><g id="elstdhk07paws"><polygon points="224.16 331.24 206 338.21 202.6 311.5 220.54 304.31 224.16 331.24" style="opacity: 0.2; transform-origin: 213.38px 321.26px;" class="animable" id="elwng0k3m5rxh"></polygon></g><path d="M212.72,305c10.81-22.13,21.65-38.08,32.57-40.2L328,241c19.84-3,37.74,2.86,53.59,18.18-2.93,24.86-15,37.91-32.32,44.09l-85.54,22.48C255.92,327.69,239.88,321.67,212.72,305Z" style="fill: #3767A6; transform-origin: 297.155px 283.17px;" id="elfesau28xq3w" class="animable"></path><path d="M189.65,307.71,218.78,294c7.62,5,8.43,12.46,6.07,18.34l-29.56,9.73C188.94,318.29,187.64,314.13,189.65,307.71Z" style="fill: #3767A6; transform-origin: 207.401px 308.035px;" id="ely385xqkurrd" class="animable"></path><path d="M169.23,301.11l-11.91,1.07a17,17,0,0,0-9.87,4.31l-36.81,33.28L160.45,344a17,17,0,0,0,7.86-1.19l9.54-3.9a17,17,0,0,0,10.23-12.34l.38-1.86a17,17,0,0,0-.47-8.53l-1.08-3.37a17,17,0,0,0-3.23-5.83h0A17,17,0,0,0,169.23,301.11Z" style="fill: #3767A6; transform-origin: 149.718px 322.551px;" id="eldomc9ybc8ob" class="animable"></path><g id="elzhc8t7lfji"><path d="M169.23,301.11l-11.91,1.07a17,17,0,0,0-9.87,4.31l-36.81,33.28L160.45,344a17,17,0,0,0,7.86-1.19l9.54-3.9a17,17,0,0,0,10.23-12.34l.38-1.86a17,17,0,0,0-.47-8.53l-1.08-3.37a17,17,0,0,0-3.23-5.83h0A17,17,0,0,0,169.23,301.11Z" style="fill: rgb(255, 255, 255); opacity: 0.19; transform-origin: 149.718px 322.551px;" class="animable" id="el6pzh7nq1xzc"></path></g><g id="elmci25z6iikg"><path d="M176.66,309.59l-6.07.55a8.65,8.65,0,0,0-5,2.19l-18.75,16.95,25.37,2.18a8.68,8.68,0,0,0,4-.61l4.86-2a8.66,8.66,0,0,0,5.21-6.29l.19-.95a8.63,8.63,0,0,0-.23-4.34l-.55-1.72a8.68,8.68,0,0,0-1.65-3h0A8.64,8.64,0,0,0,176.66,309.59Z" style="fill: rgb(255, 255, 255); opacity: 0.29; transform-origin: 166.742px 320.52px;" class="animable" id="el4ysmj13whro"></path></g><path d="M179,313.22l-3.8.34a5.44,5.44,0,0,0-3.14,1.38l-11.72,10.6,15.86,1.36a5.52,5.52,0,0,0,2.51-.38l3-1.24a5.42,5.42,0,0,0,3.25-3.94l.12-.59a5.42,5.42,0,0,0-.15-2.71l-.34-1.08a5.43,5.43,0,0,0-1-1.85h0A5.42,5.42,0,0,0,179,313.22Z" style="fill: #3767A6; transform-origin: 172.763px 320.059px;" id="elbq3zg7csvk4" class="animable"></path><g id="el5gllcxsmvgx"><path d="M212.72,305c10.81-22.13,21.65-38.08,33.23-40.39l82.65-23.76c19.19-2.85,37.09,3.05,52.94,18.37-2.93,24.86-15,37.91-32.32,44.09l-85.54,22.48C255.92,327.69,239.88,321.67,212.72,305Z" style="opacity: 0.1; transform-origin: 297.13px 283.142px;" class="animable" id="el1egdk01ybu4"></path></g><path d="M189.65,307.71,218.78,294c-1.85,8.05,2.19,14.49,6.07,18.34l-29.56,9.73C188.94,318.29,187.64,314.13,189.65,307.71Z" style="fill: #3767A6; transform-origin: 206.814px 308.035px;" id="elfrwbpt3wi1" class="animable"></path><polygon points="185.14 352.34 212.97 341.71 218.01 308.16 197.18 316.18 185.14 352.34" style="fill: #3767A6; transform-origin: 201.575px 330.25px;" id="el6x6qq3ufcuv" class="animable"></polygon><g id="elnd05wfcr4je"><polygon points="185.14 352.34 212.97 341.71 218.01 308.16 197.18 316.18 185.14 352.34" style="fill: rgb(255, 255, 255); opacity: 0.3; transform-origin: 201.575px 330.25px;" class="animable" id="eldmo5oov1mg"></polygon></g><polygon points="160.96 285.79 191.29 276.57 216.04 298.4 192.11 308.25 160.96 285.79" style="fill: #3767A6; transform-origin: 188.5px 292.41px;" id="el41i5ea1cr0u" class="animable"></polygon><g id="elywgkutg3do"><polygon points="160.96 285.79 191.29 276.57 216.04 298.4 192.11 308.25 160.96 285.79" style="fill: rgb(255, 255, 255); opacity: 0.3; transform-origin: 188.5px 292.41px;" class="animable" id="elwhmnzpeokf"></polygon></g><g id="el86ljsp4g1f"><path d="M315.33,244.67l4.18-1.2a12.15,12.15,0,0,0-5.23,8.68c-3.67,19.32,1.14,37,13.36,52.31,2,2.06,5.27,2.57,8.06,2.4l-3.58.94c-3.78.25-5.53-1-7.72-3-12.31-11.79-17.73-35.29-13.47-52.38C311.71,248.38,313.59,245.17,315.33,244.67Z" style="fill: rgb(255, 255, 255); opacity: 0.7; transform-origin: 322.596px 275.651px;" class="animable" id="el6d6cxdsiq6g"></path></g><g id="el1hdwsjvcs43"><path d="M305.8,247.41l4-1.15c-2.54,1.1-4.68,5.15-5.23,8.64-3.66,19.32,1.18,36.77,13.36,52.31,1.72,1.91,5.19,2.39,8,2.23l-3.74.95c-3.78.25-5.43-.65-7.48-2.82-12.31-11.79-17.74-35.29-13.48-52.38C301.83,251.16,304.61,247.75,305.8,247.41Z" style="fill: rgb(255, 255, 255); opacity: 0.7; transform-origin: 312.862px 278.345px;" class="animable" id="elcloe2h5sjge"></path></g><path d="M378.75,257.93c-.77,2.07-.42,3.65,1.53,4.5l25.81-7.8c3.87-1.59,5.3-2.6-.46-1.87Z" style="fill: #3767A6; transform-origin: 393.925px 257.474px;" id="elq4cz9bswvaa" class="animable"></path><g id="elnmxj92s8vnd"><path d="M378.75,257.93c-.77,2.07-.42,3.65,1.53,4.5l25.81-7.8c3.87-1.59,5.3-2.6-.46-1.87Z" style="opacity: 0.3; transform-origin: 393.925px 257.474px;" class="animable" id="eljrlsd8bksmi"></path></g><g id="elhf5glwiqhml"><path d="M222.44,309.57c16.57,6,35.21,14.07,43.12,11.69L350,298.81c11.13-1.65,21.36-23.3,29.08-37.18-9,12.78-18.1,31.61-31.33,34.33L265.56,318C256,321.17,237.79,313.59,222.44,309.57Z" style="opacity: 0.2; transform-origin: 300.76px 291.659px;" class="animable" id="elger91w6wo9"></path></g><g id="elhwzlxm68kd"><path d="M319.52,245.56a8,8,0,0,0-3.11,4.95l14-3.88c13.19-2.87,36.45,5.83,48,13-10-8.88-34.82-19.62-47-16.69Z" style="fill: rgb(255, 255, 255); opacity: 0.4; transform-origin: 347.41px 251.039px;" class="animable" id="elhfkqg5e2l8l"></path></g><g id="elm1psbecvdsf"><polygon points="378.65 261.02 379.77 262.17 409.21 253.12 378.65 261.02" style="opacity: 0.3; transform-origin: 393.93px 257.645px;" class="animable" id="eln5orrcs3jcj"></polygon></g><g id="ela3axs2vofr"><path d="M274.07,256.53l-.72,39.88-28.15.15c14.67,5.65,29.3,7.34,33.11,1.65,6.59-11,6.3-26.14,2-43.49Z" style="opacity: 0.2; transform-origin: 264.31px 278.224px;" class="animable" id="eljdmklx33byb"></path></g><g id="eli2ozeqjrdu"><path d="M280.77,256.48l22.32-6.24a8.35,8.35,0,0,0-1.62,3.74l-20,5.68Z" style="fill: rgb(230, 230, 230); opacity: 0.2; transform-origin: 291.93px 254.95px;" class="animable" id="elxbz6zp7jhjp"></path></g><g id="elu4u95l9o6dm"><path d="M255.57,264.68l-11.31,3.61a23,23,0,0,0-7,5.15l-6.12,7.09,4.21.92,5.08-5.92a17.28,17.28,0,0,1,5.57-4.28l10.79-3.83Z" style="fill: rgb(224, 224, 224); opacity: 0.2; transform-origin: 243.965px 273.065px;" class="animable" id="el14gbt5a0ecn"></path></g><path d="M233.89,211l15.18,11.66,24.47,3.12,15.17-35.08-7.15-9.84-32.49-11.61C240.9,180.87,237.08,195.32,233.89,211Z" style="fill: #3767A6; transform-origin: 261.3px 197.515px;" id="elnm2bya3nuw9" class="animable"></path><g id="el0wu7amp8hpn"><path d="M233.89,211l15.18,11.66,24.47,3.12,15.17-35.08-7.15-9.84-32.49-11.61C242,179.45,237.06,193.65,233.89,211Z" style="fill: rgb(255, 255, 255); opacity: 0.2; transform-origin: 261.3px 197.515px;" class="animable" id="eliv4b68ztcbg"></path></g><g id="elx4k31xg607"><path d="M233.89,211l15.18,11.65,15.71-38.82c-5.08-2.91-10.31-7.71-15.71-14.58C242.71,177.59,237.72,191.83,233.89,211Z" style="opacity: 0.3; transform-origin: 249.335px 195.95px;" class="animable" id="eli8dfftk5w6"></path></g><path d="M275.41,248.53c2.06,3,10.82,40.31-1.56,49.09-9.1,6.45-38.87-4.23-38.87-4.23l.63-9.34s24,3.69,26.87,1.2-10.16-25.2-10.85-31.3S275.41,248.53,275.41,248.53Z" style="fill: #3767A6; transform-origin: 257.661px 274.099px;" id="elf2khldsv6yv" class="animable"></path><g id="elzp5emzh6ei"><path d="M275.41,248.53c2.06,3,10.82,40.31-1.56,49.09-9.1,6.45-38.87-4.23-38.87-4.23l.63-9.34s24,3.69,26.87,1.2-10.16-25.2-10.85-31.3S275.41,248.53,275.41,248.53Z" style="fill: rgb(255, 255, 255); opacity: 0.3; transform-origin: 257.661px 274.099px;" class="animable" id="el1fmqa55xoxu"></path></g><path d="M246.06,283.75l-.92,14.45-12.45-4.07a1.32,1.32,0,0,0-1.7,1l-1.1,4.8a2,2,0,0,1-1.9,1.51h-1.16a1.37,1.37,0,0,1-1.37-1.3l-.92-19.91a.82.82,0,0,1,1-.84Z" style="fill: #3767A6; transform-origin: 235.3px 290.405px;" id="elfxjfxvcxj9m" class="animable"></path><path d="M297.11,191.64s4.55,22.27,7.66,26.74,19,19.47,19,19.47l-1.5,4.66s-23.86-15.31-25.5-17.46S284,202,284,202Z" style="fill: #3767A6; transform-origin: 303.885px 217.075px;" id="elakcex099104" class="animable"></path><path d="M304.77,166.76s-1.3,6.33-6.2,7.72.08-12.18.08-12.18l4.48-1.1Z" style="fill: rgb(38, 50, 56); transform-origin: 300.591px 167.89px;" id="elhcvt26sr087" class="animable"></path><g id="elg8i2mvx9ot"><circle cx="291.59" cy="169.54" r="17.8" style="fill: rgb(38, 50, 56); transform-origin: 291.59px 169.54px; transform: rotate(-45deg);" class="animable" id="elnbayvdqg62l"></circle></g><g id="el7h6awpmya4g"><circle cx="291.59" cy="169.54" r="17.8" style="fill: rgb(255, 255, 255); opacity: 0.2; transform-origin: 291.59px 169.54px; transform: rotate(-45deg);" class="animable" id="elc386dnfxmie"></circle></g><g id="eldmzyxr5xhov"><path d="M296,183.27a14.8,14.8,0,0,0,9.18-6l-1.37-.81a24.17,24.17,0,0,1-8.84,6Z" style="fill: rgb(255, 255, 255); opacity: 0.7; transform-origin: 300.075px 179.865px;" class="animable" id="el4id2hr9tnau"></path></g><g id="elll5hjmugku"><path d="M305.65,176.33l-1.42-.67a2.81,2.81,0,0,0,.65-1.3l1.33.68A2.19,2.19,0,0,1,305.65,176.33Z" style="fill: rgb(255, 255, 255); opacity: 0.7; transform-origin: 305.22px 175.345px;" class="animable" id="eljrlecoyiub"></path></g><path d="M278.33,182.74c-1,3.67,9.56,8.83,13.26,5.16-2-1.51-2.52-3.09-2.27-4.63a7.1,7.1,0,0,1,1.09-2.61,12.76,12.76,0,0,1,.92-1.3l-4.5-9.32C285.9,174.14,283.82,183.4,278.33,182.74Z" style="fill: rgb(228, 137, 123); transform-origin: 284.927px 179.6px;" id="eltwbp4p8wxur" class="animable"></path><g id="eldtvfsj0qzkt"><path d="M286.71,174.4c-2,4.57,1,7.69,2.61,8.87a7.1,7.1,0,0,1,1.09-2.61Z" style="opacity: 0.2; isolation: isolate; transform-origin: 288.228px 178.835px;" class="animable" id="elo1w4azho3lk"></path></g><path d="M285.22,176.16a7,7,0,0,0,6.65,5.35,7.83,7.83,0,0,0,5.47-1.89,6.43,6.43,0,0,0,.6-.57c3.54-3.76,7-11.33,3.36-16a7.63,7.63,0,0,0-12.94,1.39C285.87,169.46,284.18,172.29,285.22,176.16Z" style="fill: rgb(228, 137, 123); transform-origin: 293.878px 170.797px;" id="el3vcf0pno9lv" class="animable"></path><path d="M294.94,170a.69.69,0,0,0,.05,1c.27.15.66,0,.88-.45s.2-.83-.06-1S295.17,169.63,294.94,170Z" style="fill: rgb(38, 50, 56); transform-origin: 295.385px 170.276px;" id="elnanbnbcta5r" class="animable"></path><path d="M299.39,172.59a.71.71,0,0,0,.06,1c.26.14.65-.06.88-.45s.2-.84-.06-1S299.61,172.21,299.39,172.59Z" style="fill: rgb(38, 50, 56); transform-origin: 299.849px 172.862px;" id="elh8to12l3u58" class="animable"></path><path d="M297.87,172a15.79,15.79,0,0,0-.05,4.45,2.63,2.63,0,0,1-2.1-.73Z" style="fill: rgb(222, 87, 83); transform-origin: 296.795px 174.232px;" id="el5rwfvxwk15r" class="animable"></path><path d="M294.38,167.8a.28.28,0,0,0,.28,0,2.13,2.13,0,0,1,1.92.08.27.27,0,0,0,.3-.44h0a2.64,2.64,0,0,0-2.43-.13.27.27,0,0,0-.15.35h0A.44.44,0,0,0,294.38,167.8Z" style="fill: rgb(38, 50, 56); transform-origin: 295.622px 167.49px;" id="elm6oe7ljd2h8" class="animable"></path><path d="M293.91,177.36h0a4.09,4.09,0,0,1-2.5-2.83.15.15,0,0,1,.12-.17.14.14,0,0,1,.16.11h0A3.94,3.94,0,0,0,294,177.1a.13.13,0,0,1,.08.17v0a.14.14,0,0,1-.18.08Z" style="fill: rgb(38, 50, 56); transform-origin: 292.748px 175.859px;" id="elgacgmu2jylp" class="animable"></path><path d="M302.19,172.15a.22.22,0,0,0,.13.08.26.26,0,0,0,.29-.24h0a2.64,2.64,0,0,0-.93-2.25.26.26,0,0,0-.37.05h0a.27.27,0,0,0,.06.37h0a2.19,2.19,0,0,1,.7,1.8A.28.28,0,0,0,302.19,172.15Z" style="fill: rgb(38, 50, 56); transform-origin: 301.941px 170.958px;" id="elt1rs254u3ci" class="animable"></path><path d="M285.14,167.4c1.1-4.94,2.87-8.55,4.64-9.37s6.15,5.24,6.15,5.24a2,2,0,0,0-3.28,1.16c-.23,2.2-2.74,4.52-4.74,4.94,0,0,.37-.82-.4-1s-2.71,4.1-2.41,6.76C285.1,175.15,284,172.34,285.14,167.4Z" style="fill: rgb(38, 50, 56); transform-origin: 290.276px 166.542px;" id="eld8p7zfvrz7" class="animable"></path><path d="M284,167.23a5.31,5.31,0,0,0,1.31,3.84c1.23,1.39,2.86.53,3.36-1.17.43-1.51.34-4.09-1.32-4.84A2.37,2.37,0,0,0,284,167.23Z" style="fill: rgb(228, 137, 123); transform-origin: 286.439px 168.306px;" id="eluce98prjxli" class="animable"></path><path d="M288.24,160.41s3.45-4,10.18-3.46c8.23.69,7.13,12.1,5.73,12.59-1.09.18-.24-4.83-1.41-4.36-.9.67-.9,1.2-1.84,1.11-.53,0-1.16-1.18-1.79-2.43-1.23-1.28-4.05,2.82-6.14,3.67C291.07,167,289.48,163,288.24,160.41Z" style="fill: rgb(38, 50, 56); transform-origin: 296.682px 163.222px;" id="elt21xwhiu5tj" class="animable"></path><path d="M248.87,228.54c-.58,9.46.63,21.45,3.6,28.57l25.14-1.58,8.83-2.56c-1.66-1.71-5.45-10.72-2.87-24.84Z" style="fill: #3767A6; transform-origin: 267.584px 242.62px;" id="elis9gfnrzgyn" class="animable"></path><g id="elhvj2pfscwve"><g style="opacity: 0.3; transform-origin: 267.584px 242.62px;" class="animable" id="elirlxa8at24"><path d="M248.87,228.54c-.58,9.46.63,21.45,3.6,28.57l25.14-1.58,8.83-2.56c-1.86-2-5.3-10.71-2.87-24.84Z" style="fill: rgb(255, 255, 255); transform-origin: 267.584px 242.62px;" id="el2r60jcjt7uj" class="animable"></path></g></g><g id="ell27mw7udy8"><polygon points="277.61 255.53 279 250.72 283.91 253.71 277.61 255.53" style="opacity: 0.2; transform-origin: 280.76px 253.125px;" class="animable" id="el7emqridoguh"></polygon></g><path d="M286.71,170.61l-.32,2.34a4.22,4.22,0,0,0,.26,2.14l.15.37a4.21,4.21,0,0,0,3.27,2.6l1.51.23V179l-2-.38a4.23,4.23,0,0,1-3.1-2.53l-.35-.85a4.23,4.23,0,0,1-.24-2.41l.45-2.34Z" style="fill: rgb(38, 50, 56); transform-origin: 288.696px 174.745px;" id="eldijo6fiyazo" class="animable"></path><g id="elu7my9aftn7i"><path d="M286.71,170.61l-.32,2.34a4.22,4.22,0,0,0,.26,2.14l.15.37a4.21,4.21,0,0,0,3.27,2.6l1.51.23V179l-2-.38a4.23,4.23,0,0,1-3.1-2.53l-.35-.85a4.23,4.23,0,0,1-.24-2.41l.45-2.34Z" style="fill: rgb(255, 255, 255); opacity: 0.2; transform-origin: 288.696px 174.745px;" class="animable" id="ellh8hw5u7xr"></path></g><rect x="291.08" y="177.87" width="2.23" height="1.88" rx="0.58" style="fill: rgb(38, 50, 56); transform-origin: 292.195px 178.81px;" id="elzzacuwjeqm" class="animable"></rect><rect x="285.56" y="167.48" width="2.05" height="3.45" rx="0.63" style="fill: rgb(38, 50, 56); transform-origin: 286.585px 169.205px;" id="elo588yqjtbg" class="animable"></rect><g id="elvi8a9zfyvdj"><path d="M297.11,191.64s4.55,22.27,7.66,26.74,19.71,20.15,19.71,20.15l-2.83,3.54s-23.22-14.87-24.86-17S284,202,284,202Z" style="fill: rgb(255, 255, 255); opacity: 0.15; transform-origin: 304.24px 216.855px;" class="animable" id="elt4mpho71jgj"></path></g><g id="el6ctncw0ji5a"><polygon points="289.28 207.41 292.94 218.47 288.35 210.11 289.28 207.41" style="opacity: 0.2; transform-origin: 290.645px 212.94px;" class="animable" id="elq3addbmlzk"></polygon></g><path d="M248.69,231.49,283,233.67s4-31.33,15-41.37l-5.65-4.65-15-5.2s-7.66-.21-12.16.75a46.84,46.84,0,0,0-3.8,5.42,80.14,80.14,0,0,0-5.84,11.52A93.27,93.27,0,0,0,248.69,231.49Z" style="fill: #3767A6; isolation: isolate; transform-origin: 273.345px 208.05px;" id="elvnctgowd68" class="animable"></path><g id="el1mqufcegga5"><path d="M283.2,232.28l-11-7.8c-2-1.92-7.58-15.31-11.76-24.18l23.44,28.24Z" style="opacity: 0.2; transform-origin: 272.16px 216.29px;" class="animable" id="elavz50c0ynkk"></path></g><g id="el6jfbvqu14vs"><path d="M271.93,182.5h1.26l22.3,7.74.93.76h0a3,3,0,0,1-1.54,1.65l-1.29.62C285.41,190.29,277.79,187.43,271.93,182.5Z" style="fill: rgb(38, 50, 56); opacity: 0.2; transform-origin: 284.175px 187.885px;" class="animable" id="elky5l1mdxqe"></path></g><path d="M273.64,189.64s6.21,21.65,9.32,26.12,24.13,25.05,24.13,25.05l-3.36,3.79s-27.91-18.71-29.55-20.86-13.58-22.81-13.58-22.81C257.4,192.12,269,178.38,273.64,189.64Z" style="fill: #3767A6; transform-origin: 283.57px 214.999px;" id="elkwdahxl1hqf" class="animable"></path><g id="elj1u4yegwfud"><path d="M273.64,189.64s6.21,21.65,9.32,26.12,24.13,25.05,24.13,25.05l-3.36,3.79s-27.91-18.71-29.55-20.86-13.58-22.81-13.58-22.81C257.4,192.12,269,178.38,273.64,189.64Z" style="fill: rgb(255, 255, 255); opacity: 0.15; transform-origin: 283.57px 214.999px;" class="animable" id="elu54rdppp9qp"></path></g><path d="M263.57,198.93l2.28,4.68c1-3.76,2.8-6,5.48-6.62l-2.66-5.35A11.79,11.79,0,0,0,263.57,198.93Z" style="fill: #3767A6; transform-origin: 267.45px 197.625px;" id="elkc5wq725yzh" class="animable"></path><g id="elzsevaipshe"><g style="opacity: 0.2; transform-origin: 235.3px 290.405px;" class="animable" id="elowoeaff145"><path d="M246.06,283.75l-.92,14.45-12.45-4.07a1.32,1.32,0,0,0-1.7,1l-1.1,4.8a2,2,0,0,1-1.9,1.51h-1.16a1.37,1.37,0,0,1-1.37-1.3l-.92-19.91a.82.82,0,0,1,1-.84Z" style="fill: rgb(255, 255, 255); transform-origin: 235.3px 290.405px;" id="elt3p0kk10fte" class="animable"></path></g></g><path d="M300.56,231.88l-8.35,8.46,11.73,5.31,2.7,6.15a.78.78,0,0,0,1.26.24l5.83-5.74a.72.72,0,0,0-.05-1.08l-5.45-4.53Z" style="fill: #3767A6; transform-origin: 303.08px 242.072px;" id="el1rur6o3l4bj" class="animable"></path><g id="elu8l0twr7um"><path d="M300.56,231.88l-8.35,8.46,11.73,5.31,2.7,6.15a.78.78,0,0,0,1.26.24l5.83-5.74a.72.72,0,0,0-.05-1.08l-5.45-4.53Z" style="fill: rgb(255, 255, 255); opacity: 0.3; transform-origin: 303.08px 242.072px;" class="animable" id="el0pai8x2bsj8g"></path></g><path d="M308.92,237.79l8.36-9.25,7.42,8.57,5.09,2.58a.59.59,0,0,1,.23.83l-.14.24-8.64,2.2-.62-.74Z" style="fill: #3767A6; transform-origin: 319.513px 235.75px;" id="eljegg0o0voo" class="animable"></path><g id="ela1h0leyffs"><g style="opacity: 0.3; transform-origin: 319.513px 235.75px;" class="animable" id="elcsntqz3ubb7"><path d="M308.92,237.79l8.36-9.25,7.42,8.57,5.09,2.58a.59.59,0,0,1,.23.83l-.14.24-8.64,2.2-.62-.74Z" style="fill: rgb(255, 255, 255); transform-origin: 319.513px 235.75px;" id="el5291l27w72o" class="animable"></path></g></g><path d="M309.39,169.54A17.8,17.8,0,1,0,275.44,177l-.72-.58c-1.72,1-2.62,2.69-2.56,5.24a63.75,63.75,0,0,0,21.7,10.58,7.36,7.36,0,0,0,2.56-5.24l-.75-.16A17.8,17.8,0,0,0,309.39,169.54Zm-15,14.81a12.93,12.93,0,1,1,12.93-12.93A12.92,12.92,0,0,1,294.43,184.35Z" style="fill: #3767A6; transform-origin: 290.774px 171.978px;" id="elre9rsccsxbf" class="animable"></path><g id="ell1igd8t0if"><path d="M309.39,169.54A17.8,17.8,0,1,0,275.44,177l-.72-.58c-1.72,1-2.62,2.69-2.56,5.24a63.75,63.75,0,0,0,21.7,10.58,7.36,7.36,0,0,0,2.56-5.24l-.75-.16A17.8,17.8,0,0,0,309.39,169.54Zm-15,14.81a12.93,12.93,0,1,1,12.93-12.93A12.92,12.92,0,0,1,294.43,184.35Z" style="fill: rgb(255, 255, 255); opacity: 0.3; transform-origin: 290.774px 171.978px;" class="animable" id="elrfe17v3fqd"></path></g><g id="elehvhh5u8b8r"><path d="M276.18,177.38l5.38,3.48c-4-2.9-6.29-7.14-6.73-12.91A16.72,16.72,0,0,0,276.18,177.38Z" style="opacity: 0.2; transform-origin: 278.105px 174.405px;" class="animable" id="elfxq4t9y6oe"></path></g><g id="elj90ppa82ell"><path d="M296,154.14a18.14,18.14,0,0,1,12,10.69,19.17,19.17,0,0,0-10.15-11.19Z" style="fill: rgb(255, 255, 255); opacity: 0.2; transform-origin: 302px 159.235px;" class="animable" id="elvqcfgphorh"></path></g><g id="elyrcwd5jq6kh"><path d="M296.79,153.22l-1.77.7-1.54-.28.4-1.21A6.32,6.32,0,0,1,296.79,153.22Z" style="fill: rgb(255, 255, 255); opacity: 0.2; transform-origin: 295.135px 153.175px;" class="animable" id="elqw5677s22ie"></path></g><g id="elfef0tl1tnxi"><polygon points="245.95 285.38 245.19 296.51 245.82 296.68 246.67 285.45 245.95 285.38" style="fill: rgb(38, 50, 56); opacity: 0.2; transform-origin: 245.93px 291.03px;" class="animable" id="el55d48x1x1ml"></polygon></g></g><defs>     <filter id="active" height="200%">         <feMorphology in="SourceAlpha" result="DILATED" operator="dilate" radius="2"></feMorphology>                <feFlood flood-color="#32DFEC" flood-opacity="1" result="PINK"></feFlood>        <feComposite in="PINK" in2="DILATED" operator="in" result="OUTLINE"></feComposite>        <feMerge>            <feMergeNode in="OUTLINE"></feMergeNode>            <feMergeNode in="SourceGraphic"></feMergeNode>        </feMerge>    </filter>    <filter id="hover" height="200%">        <feMorphology in="SourceAlpha" result="DILATED" operator="dilate" radius="2"></feMorphology>                <feFlood flood-color="#ff0000" flood-opacity="0.5" result="PINK"></feFlood>        <feComposite in="PINK" in2="DILATED" operator="in" result="OUTLINE"></feComposite>        <feMerge>            <feMergeNode in="OUTLINE"></feMergeNode>            <feMergeNode in="SourceGraphic"></feMergeNode>        </feMerge>            <feColorMatrix type="matrix" values="0   0   0   0   0                0   1   0   0   0                0   0   0   0   0                0   0   0   1   0 "></feColorMatrix>    </filter></defs></svg>